<svg
  xmlns="http://www.w3.org/2000/svg"
  width="1.70666in"
  height="1.70666in"
  version="1.1"
  style="shape-rendering:geometricPrecision;text-rendering:geometricPrecision;image-rendering:optimizeQuality;fill-rule:evenodd;clip-rule:evenodd"
  viewBox="0 0 1707 1707"
>
  <defs>
    <style type="text/css">
      .fil0 { fill: #000000; }
    </style>
  </defs>
  <g id="Layer_x0020_1">
    <path
      class="fil0"
      d="M1534 1117l0 -434 -680 -421 -679 420 0 148 65 0c14,0 25,11 25,25l0 505 64 0c-12,-18 -19,-39 -19,-62 0,-63 51,-114 114,-114 62,0 112,51 112,114 0,23 -7,44 -19,62l81 0c6,-98 47,-151 210,-151l457 0c64,0 117,44 117,100l0 51 61 0 0 -218c0,-14 11,-25 25,-25l66 0zm-1409 -287l0 -117 -79 49c-16,9 -38,-2 -38,-21l0 -208c0,-9 5,-17 11,-21l823 -509c8,-5 18,-5 25,0l820 509c7,4 11,12 11,21l0 208c0,18 -20,31 -36,21l-78 -48 0 403 60 0c14,0 25,11 25,25l0 540c-1,14 -12,25 -25,25l-176 0c-14,0 -25,-11 -25,-25l0 -95 -1178 0 0 95c0,14 -11,25 -23,25l-178 0c-14,0 -25,-11 -25,-25l0 -827c0,-14 11,-25 25,-25l61 0zm140 707l1178 0 0 -127 -1178 0 0 127zm-176 122l128 0 0 -779 -67 0 -61 0 0 779zm765 -807c-96,0 -174,-78 -174,-172 0,-96 78,-174 174,-174 96,0 174,78 174,174 0,94 -78,172 -174,172zm0 -297c-68,0 -125,55 -125,125 0,68 56,123 125,123 68,0 125,-55 125,-123 0,-70 -56,-125 -125,-125zm13 -342l783 486 0 -153 -796 -494 -796 494 0 152 784 -486c7,-5 18,-3 25,1zm-219 1147l684 0 0 -51c0,-29 -31,-52 -68,-52l-456 0c-131,0 -157,32 -160,103zm843 299l128 0 0 -492 -60 0 -68 0 0 492zm-1067 -427c-37,0 -66,30 -66,66 0,30 22,56 52,62l27 0c28,-6 50,-32 50,-62 0,-36 -27,-66 -63,-66z"
    />
  </g>
</svg>
