<?xml version="1.0" encoding="utf-8"?>
<!-- Generator: Adobe Illustrator 23.0.2, SVG Export Plug-In . SVG Version: 6.00 Build 0)  -->
<svg version="1.1" id="Layer_1" xmlns="http://www.w3.org/2000/svg" xmlns:xlink="http://www.w3.org/1999/xlink" x="0px" y="0px"
	 viewBox="0 0 348.6694 181.446" enable-background="new 0 0 348.6694 181.446" xml:space="preserve">
<g>
	<path d="M55,181.446h11v-38.6661h2.334v-11H17.1992c1.1465-28.7773-0.9746-57.6504-6.3945-86.0615
		C7.2031,46.4059,3.6015,47.0924,0,47.7799c8.4218,44.1465,8.6621,89.4473,0.7734,133.6661h11.1738
		c0.8047-4.6563,1.502-9.3243,2.1328-14H55V181.446z M14.8398,161.446c0.7383-6.211,1.3203-12.4336,1.75-18.6661H55v18.6661H14.8398
		z"/>
	<path d="M99.604,0.5914c-12.0996-2.8184-24.1934,4.707-27.0117,16.8046c-2.8165,12.0997,4.7089,24.1934,16.8085,27.0098
		c12.0997,2.8184,24.1915-4.707,27.0098-16.8066C119.229,15.4997,111.7036,3.4079,99.604,0.5914z"/>
	<path d="M62.0742,101.5876c1.1421-9.0899,3.6289-18.2745,6.1509-26.5362c-0.3946-0.248-0.7974-0.497-1.1695-0.7422
		c-10.8213-7.0937-15.333-14.5009-15.811-15.3222c-1.3433-2.3057-1.7114-4.9981-1.0327-7.5811
		c0.6806-2.583,2.3242-4.748,4.6313-6.0928c1.5298-0.8916,3.27-1.3642,5.0332-1.3642c3.4976,0,6.7862,1.8613,8.5826,4.8555
		c0.0288,0.0458,0.1137,0.1699,0.2441,0.3564c0.2793,0.3848,0.7803,1.0361,1.519,1.8623c0.8462,0.9414,2.0762,2.1748,3.7051,3.5332
		c0.4312-7.4805-2.4956-14.7021-8.5747-16.9277c-8.2622-3.0264-21.0605,0.2666-27.6265,14.289
		c-8.9145,19.334-11.7675,32.2344-11.5625,54.5987c1.3262,15.5205,11.1304,18.8408,19.9288,19.873
		c1.0009,0.2442,2.0429,0.3809,3.121,0.3672l0.9351-0.0127c1.3164,0.0723,2.5059,0.0723,3.5757-0.0459l21.4287-0.2803
		l0.0005-25.0009L62.0742,101.5876z"/>
	<path d="M94.0986,175.7554c1.0044,0.2598,2.0503,0.4112,3.1304,0.4112c0.2334,0,0.4677-0.0069,0.7041-0.0196
		c6.8935-0.3847,12.1694-6.2832,11.7866-13.1767l-2.7881-50.001c-0.0249-0.4502-0.0776-0.8916-0.1479-1.3262H94.0986V175.7554z"/>
	<path d="M125.4389,85.6999h20.6543v-3.0362h-1.084v-5.4638h-15.9155c0.0186,0.248,0.0381,0.497,0.0381,0.75
		C129.1318,81.0739,127.6904,83.8649,125.4389,85.6999z"/>
	<path d="M68.7309,52.3561c-0.8022-0.8955-1.3462-1.6064-1.6601-2.041c-0.1553-0.2188-0.2544-0.3682-0.2998-0.4385
		c-0.023-0.0351-0.0269-0.043-0.0269-0.043h-0.0005c-2.2495-3.7509-7.103-5.0039-10.8916-2.7929
		c-3.8164,2.2246-5.1045,7.124-2.8779,10.9404l-0.002-0.0019c0.4654,0.7988,4.7491,7.8212,15.1817,14.6611
		c10.394,6.8379,26.8828,13.3076,50.8413,13.3086c0.0469,0,0.0908,0,0.1377,0c4.4184,0,7.999-3.5811,7.999-7.999
		c0-4.419-3.5806-8.002-7.999-8.002c-21.2149-0.0225-34.3086-5.54-42.2085-10.6904C72.9795,56.6724,70.3393,54.1461,68.7309,52.3561
		z"/>
	<path d="M336.7221,181.446h11.1739c-7.8887-44.2188-7.6485-89.5196,0.7734-133.6661c-3.6016-0.6875-7.2031-1.374-10.8047-2.0615
		c-5.4199,28.4111-7.541,57.2842-6.3945,86.0615h-51.1348v11h2.334v38.6661h11v-14h40.9199
		C335.2202,172.1217,335.9174,176.7897,336.7221,181.446z M293.6694,161.446v-18.6661h38.4102
		c0.4296,6.2325,1.0117,12.4551,1.75,18.6661H293.6694z"/>
	<path d="M249.0639,0.5914c-12.0996,2.8164-19.625,14.9082-16.8066,27.0078c2.8184,12.0996,14.9101,19.625,27.0098,16.8066
		c12.0996-2.8164,19.625-14.9101,16.8086-27.0098C273.2573,5.2984,261.1635-2.2269,249.0639,0.5914z"/>
	<path d="M279.7632,49.4333c0.2705-0.3614,0.416-0.5801,0.4599-0.6485c1.7842-2.9746,5.0713-4.8359,8.5674-4.8359
		c1.7617,0,3.501,0.4717,5.0312,1.3642c4.7627,2.7784,6.377,8.9121,3.5997,13.6739c-0.4805,0.8232-5.0059,8.2412-15.8135,15.3252
		c-0.3701,0.2441-0.7715,0.4922-1.1641,0.7382c2.5215,8.2627,5.0088,17.4473,6.1504,26.5362l-13.0771-0.1699l-0.001,25
		l21.4277,0.2812c1.0703,0.1182,2.2598,0.1182,3.5772,0.0459l0.9336,0.0127c1.0771,0.0137,2.1191-0.123,3.1191-0.3662
		c8.7988-1.0322,18.6055-4.3516,19.9316-19.874c0.2051-22.3643-2.6484-35.2647-11.5625-54.5987
		c-6.5664-14.0224-19.3652-17.3154-27.6269-14.289c-6.0791,2.2256-9.0059,9.4472-8.5742,16.9287
		C277.4028,52.3394,279.0063,50.4342,279.7632,49.4333z"/>
	<path d="M241.8842,111.6432c-0.0703,0.4356-0.122,0.877-0.1474,1.3272l-2.7871,49.998
		c-0.3867,6.8945,4.8906,12.7949,11.7842,13.1787c0.2363,0.0137,0.4726,0.0196,0.707,0.0196c1.0801,0,2.126-0.1504,3.1308-0.4112
		v-64.1123H241.8842z"/>
	<path d="M219.5337,77.9489c0-0.2529,0.0195-0.501,0.038-0.749h-15.9121v5.4638h-1.082v3.0362h20.6484
		C220.9751,83.8639,219.5337,81.0719,219.5337,77.9489z"/>
	<path d="M229.6626,85.9499c23.9658,0.0009,40.455-6.4707,50.8496-13.3106c10.4326-6.8379,14.7168-13.8613,15.1816-14.6601
		c2.2276-3.8165,0.9356-8.7149-2.8789-10.9395c-3.7881-2.21-8.6406-0.9561-10.8906,2.7939l-0.001-0.0009
		c-0.0019,0.0039-0.0078,0.0136-0.0176,0.0302c-0.0527,0.0831-0.2226,0.3428-0.5478,0.7754
		c-1.418,1.877-5.5108,6.6426-13.5967,10.9815c-8.0986,4.3281-20.2441,8.3164-38.2266,8.3291c-4.4189,0-8,3.581-8,8
		c0,4.418,3.5811,8.001,8,8.001C229.5766,85.9499,229.6196,85.9499,229.6626,85.9499z"/>
	<polygon points="70.2509,95.5904 77.1533,95.5904 77.1513,181.446 92.0986,181.446 92.0986,109.6452 256.5698,109.6452 
		256.5698,181.446 271.5151,181.446 271.5171,95.5904 278.4174,95.5904 278.4174,89.1842 70.2509,89.1842 	"/>
	<rect x="154.9174" y="72.0329" width="41.168" height="12.667"/>
	<rect x="150.0835" y="58.0329" width="38.6679" height="10.667"/>
	<rect x="158.7514" y="46.6989" width="38.666" height="8.001"/>
</g>
</svg>
