<?xml version="1.0" encoding="iso-8859-1"?>
<!-- Uploaded to: SVG Repo, www.svgrepo.com, Generator: SVG Repo Mixer Tools -->
<!DOCTYPE svg PUBLIC "-//W3C//DTD SVG 1.1//EN" "http://www.w3.org/Graphics/SVG/1.1/DTD/svg11.dtd">
<svg fill="currentColor" version="1.1" id="Capa_1" xmlns="http://www.w3.org/2000/svg" xmlns:xlink="http://www.w3.org/1999/xlink" 
	 width="800px" height="800px" viewBox="0 0 485.74 485.74"
	 xml:space="preserve">
<g>
	<path d="M248.799,376.222c42.557-4.06,79.694-21.221,110.306-51.174c44.45-43.521,62.94-96.742,56.155-158.384
		c-3.472-31.461-15.049-60.203-33.763-85.809C351.323,39.626,310.98,14.417,260.614,5.637c-10.052-1.753-20.322-2.209-30.481-3.261
		c-0.678,0-1.345,0-2.022,0c-9.493,1.042-19.029,1.732-28.471,3.177C102.774,20.421,32.744,112.133,43.822,209.71
		c5.29,46.583,24.793,86.292,59.423,117.965C144.424,365.344,193.336,381.492,248.799,376.222z M88.43,265.18
		c-32.545-62.485-16.692-133.194,16.382-172.098c0.887,6.993,1.759,13.278,2.484,19.595c1.979,17.229,0.487,34.23-3.036,51.18
		c-0.747,3.609-0.49,7.716,0.491,11.27c0.531,1.937,3.445,4.23,5.47,4.421c1.595,0.151,4.37-2.367,5.021-4.26
		c1.161-3.384,1.209-7.176,1.562-10.821c0.251-2.566,0.257-5.171,0.443-9.187c2.626,2.128,4.544,3.417,6.128,5.02
		c4.062,4.085,8.164,8.151,11.864,12.545c1.642,1.95,3.329,4.679,3.278,7.026c-0.103,5.021,2.101,8.432,4.795,12.384
		c2.989,4.382,4.336,9.895,6.254,14.979c0.812,2.129,0.974,4.525,1.938,6.572c2.052,4.386,5.138,7.384,10.461,7.721
		c5.604,0.353,7.706,2.523,8.512,8.26c-1.434,0.162-2.858,0.354-4.298,0.492c-6.829,0.646-10.214,3.782-9.945,10.682
		c0.544,13.691,5.475,25.647,15.634,35.151c2.806,2.622,5.776,5.057,8.5,7.749c6.212,6.146,8.381,13.346,5.395,21.816
		c-1.428,4.05-3.389,8.017-4.024,12.187c-0.642,4.252-0.648,8.859,0.331,13.012c1.026,4.323,0.583,13.769,5.048,12.985
		c7.896-1.378,12.436,0.171,13.046-8.662c0.117-1.69-0.017-1.904-0.465-3.452c-2.349-8.301,8.304-31.856,14.708-36.143
		c5.465-3.678,10.944-7.42,15.892-11.728c7.146-6.21,10.345-14.222,7.34-23.557c-2.822-8.777,0.481-15.239,6.619-20.897
		c6.271-5.765,10.375-12.405,9.95-21.28c-0.435-8.871-6.229-15.275-13.805-14.361c-3.7,0.437-7.246,2.213-10.849,3.428
		c-5.288,1.779-10.438,4.288-15.875,5.259c-7.604,1.343-12.275-3.623-15.677-9.655c-2.736-4.854-3.625-5.223-8.367-2.202
		c-3.995,2.55-7.982,5.132-12.126,7.436c-4.298,2.408-6.645,1.51-9.951-2.08c-1.967-2.123-4.683-3.614-7.206-5.137
		c-1.803-1.112-4.258-1.413-5.715-2.808c-1.942-1.877-4.662-4.679-4.387-6.72c0.323-2.392,3.098-5.395,5.513-6.38
		c4.176-1.694,8.915-1.967,13.399-2.933c2.385-0.525,4.801-1.053,7.053-1.953c3.094-1.228,2.952-3.256,0.593-5.155
		c-1.165-0.941-2.604-1.598-3.999-2.164c-6.833-2.739-13.694-5.374-20.509-8.131c-1.703-0.682-3.369-1.519-4.893-2.504
		c-4.285-2.823-4.796-5.929-0.914-9.357c15.354-13.543,33.303-17.51,49.194,0.487c4.919,5.57,8.26,12.522,12.908,18.372
		c3.655,4.612,7.874,8.944,12.52,12.495c1.91,1.469,6.224,1.716,8.369,0.544c3.189-1.753,3.301-5.731,1.688-9.056
		c-1.384-2.883-3.016-5.721-4.972-8.252c-9.021-11.633-8.41-34.304,9.275-43.773c5.916-3.166,11.885-6.506,14.706-15.002
		c-3.387,0.919-5.841,1.513-8.256,2.241c-13.426,4.159-4.074-5.855,2.095-7.604c3.756-1.064-3.357-3.932-3.357-3.932
		c0.175-0.298,4.731-1.598,9.787-3.754c3.485-1.485,7.053-3.152,9.942-5.499c1.872-1.541,2.588-4.477,3.838-6.791
		c-0.323-0.364-0.626-0.717-0.943-1.081c-3.557,0.476-7.097,1.004-10.654,1.405c-6.019,0.668-7.434-0.516-7.997-6.595
		c-0.38-4.14-4.615-6.408-8.572-4.279c-2.673,1.445-4.987,3.546-7.554,5.209c-5.939,3.85-10.377,2.315-12.708-4.319
		c-1.384-3.943-3.322-4.695-6.948-2.482c-1.828,1.111-3.357,2.736-5.218,3.764c-3.042,1.71-6.142,3.415-9.409,4.575
		c-3.187,1.119-7.032,1.942-9.187-1.548c-2.336-3.76-0.294-7.418,2.636-9.77c3.642-2.925,7.858-5.208,11.965-7.505
		c5.855-3.299,12.053-6.033,17.7-9.63c4.142-2.651,5.956-6.955,4.611-12.042c-1.126-4.293-4-5.75-7.979-3.778
		c-3.283,1.63-6.162,4.185-9.53,5.49c-2.47,0.956-5.542,0.961-8.203,0.496c-0.976-0.169-2.008-2.892-2.034-4.462
		c-0.027-0.9,1.816-2.476,2.993-2.673c8.164-1.275,16.361-2.347,24.562-3.283c1.095-0.118,2.727,0.555,3.401,1.417
		c5.425,6.843,12.985,10.167,20.946,12.537c6.687,1.982,7.646,1.037,8.571-5.973c8.591-2.024,17.317-6.008,25.965-0.561
		c4.791,3.025,9.158,6.859,13.219,10.843c1.009,0.996,0.383,4.068-0.094,6.033c-0.629,2.662-2.101,5.105-2.777,7.768
		c-1.303,5.138,2.012,9.158,7.325,9.078c1.686-0.041,3.354-0.38,5.034-0.465c4.908-0.229,6.659,1.647,6.195,6.61
		c-0.631,7.018,0.541,7.863,7.634,6.657c2.022-0.339,4.381,0.591,6.463,1.313c1.236,0.435,2.198,1.619,3.297,2.454
		c6.589,4.999,11.625,3.122,13.555-5.048c0.208-0.887,0.181-1.833,0.367-2.736c0.762-3.664,2.834-4.613,5.302-2
		c5.247,5.546,10.158,11.409,15.48,17.453c-5.713,5.245-5.904,11.617-4.641,17.852c1.406,6.944-0.421,12.977-3.157,19.092
		c-2.632,5.855-5.504,11.683-7.265,17.813c-2.623,9.198,0.355,13.407,9.699,15.437c8.914,1.954,10.364,3.743,10.706,12.459
		c0.457,11.891,6.559,20.096,16.982,25.336c2.328,1.152,4.779,2.027,7.142,3.018c-1.177,18.312-6.406,37.388-15.354,55.483
		c-4.739-8.263-10.713-19.771-13.388-29.596c-3.88-14.271-13.195-0.481-13.971,8.836c-0.779,9.317-6.989,16.294-19.409,2.332
		c-12.429-13.979-14.76-10.869-18.634-10.869c-3.88,0-10.861,9.313-9.319,52.788c1.105,31.05,13.353,35.968,21.365,38.222
		c-14.858,10.217-31.926,18.257-51.1,23.119C198.105,365.986,123.344,332.233,88.43,265.18z M388.511,444.069
		c-5.631-48.75,14.161-122.682,16.757-132.044c4.255-6.233,8.233-12.718,11.874-19.46c27.314-50.609,33.273-108.834,16.809-163.932
		C417.474,73.537,380.527,28.148,329.914,0.841c-3.385-1.828-7.634-0.583-9.464,2.828c-1.831,3.401-0.569,7.643,2.835,9.476
		c47.329,25.541,81.867,67.979,97.275,119.497c15.404,51.517,9.828,105.963-15.721,153.293
		c-25.53,47.316-67.979,81.868-119.497,97.271c-51.529,15.409-105.966,9.829-153.29-15.716c-3.383-1.828-7.627-0.574-9.463,2.834
		c-1.834,3.398-0.567,7.634,2.834,9.467c31.872,17.193,66.741,25.932,101.956,25.932c20.723,0,41.568-3.026,61.974-9.128
		c12.653-3.786,24.746-8.694,36.273-14.544c3.054,0.569,26.556,6.703,26.53,60.395c-38.249,1.022-68.216,10.293-68.216,21.593
		c0,11.983,33.664,21.703,75.202,21.703c41.545,0,75.206-9.72,75.206-21.703C434.344,455.073,415.457,447.38,388.511,444.069z
		 M340.731,373.596c16.146-9.921,30.854-21.926,43.812-35.754c-6.211,28.389-13.429,71.092-10.194,104.952
		c-2.68-0.146-5.444-0.268-8.246-0.345C366.119,399.413,352.157,381.224,340.731,373.596z"/>
</g>
</svg>