<?xml version="1.0" encoding="utf-8"?>
<svg
  xmlns="http://www.w3.org/2000/svg"
  xml:space="preserve"
  width="1.99999in"
  height="1.99999in"
  version="1.1"
  style="shape-rendering:geometricPrecision; text-rendering:geometricPrecision; image-rendering:optimizeQuality; fill-rule:evenodd; clip-rule:evenodd"
  viewBox="0 0 2000 2000"
>
  <defs>
    <style type="text/css">
      .fil0 { fill: #000002 }
    </style>
  </defs>
  <g id="Layer_x0020_1">
    <metadata id="CorelCorpID_0Corel-Layer"></metadata>
    <path
      class="fil0"
      d="M398 1294l0 -155c0,-34 51,-34 51,0l0 155 148 0 0 -155c0,-34 52,-34 52,0l0 155 42 0 0 -151c0,-53 -28,-103 -73,-130 -54,48 -135,48 -189,0 -45,27 -73,77 -73,130l0 151 42 0zm1203 315l-1362 0c-51,0 -92,-42 -92,-93l0 -873c0,-51 41,-92 92,-92l62 0 0 -67c0,-51 41,-93 92,-93l1368 0c51,0 92,42 92,93l0 873c0,51 -41,92 -92,92l-68 0 0 67c0,51 -41,93 -92,93zm-1249 -1058l1249 0c51,0 92,41 92,92l0 754 68 0c22,0 41,-18 41,-40l0 -873c0,-23 -19,-41 -41,-41l-1368 0c-23,0 -41,18 -41,41l0 67zm-113 52c-22,0 -41,18 -41,40l0 873c0,23 19,41 41,41l1362 0c22,0 41,-18 41,-41l0 -873c0,-22 -19,-40 -41,-40l-1362 0zm1238 222l-337 0c-34,0 -34,-52 0,-52l337 0c34,0 34,52 0,52zm0 216l-337 0c-34,0 -34,-52 0,-52l337 0c34,0 34,52 0,52zm-376 216l-246 0c-34,0 -34,-52 0,-52l246 0c34,0 34,52 0,52zm-38 216l-731 0c-34,0 -34,-52 0,-52l731 0c34,0 34,52 0,52zm408 -527l-526 0c-34,0 -34,-52 0,-52l526 0c34,0 34,52 0,52zm-104 -212l-117 0c-35,0 -35,-51 0,-51l117 0c34,0 34,51 0,51zm-663 612l-362 0c-21,0 -38,-17 -38,-38l0 -165c0,-80 47,-152 120,-185 33,-16 34,39 99,39 66,0 66,-55 100,-39 73,33 120,105 120,185l0 165c0,21 -18,38 -39,38zm-181 -387c-77,0 -141,-63 -141,-141 0,-78 64,-141 141,-141 78,0 141,63 141,141 0,78 -63,141 -141,141zm0 -230c-49,0 -89,40 -89,89 0,49 40,90 89,90 50,0 90,-41 90,-90 0,-49 -40,-89 -90,-89zm842 778c-113,0 -204,-93 -202,-203 0,-111 91,-202 202,-202 112,0 203,92 202,204 0,111 -91,201 -202,201zm-72 -334c-40,21 -68,60 -76,106l56 0c2,-38 8,-76 20,-106zm-76 158c8,45 36,84 76,106 -12,-31 -18,-68 -20,-106l-56 0zm220 106c40,-22 68,-61 76,-106l-56 0c-2,38 -8,75 -20,106zm76 -158c-8,-46 -36,-85 -76,-106 12,30 18,68 20,106l56 0zm-148 -125c-10,1 -36,44 -40,125l80 0c-4,-81 -30,-124 -40,-125zm-40 177c4,81 30,124 40,124 10,0 36,-44 40,-124l-80 0z"
    />
  </g>
</svg>
